<?xml version="1.0" encoding="UTF-8" standalone="no"?>
<!-- Created with Inkscape (http://www.inkscape.org/) -->

<svg
   width="480"
   height="480"
   viewBox="0 0 127 127"
   version="1.1"
   id="svg5"
   inkscape:version="1.1.2 (b8e25be833, 2022-02-05)"
   sodipodi:docname="favicon.svg"
   xmlns:inkscape="http://www.inkscape.org/namespaces/inkscape"
   xmlns:sodipodi="http://sodipodi.sourceforge.net/DTD/sodipodi-0.dtd"
   xmlns="http://www.w3.org/2000/svg"
   xmlns:svg="http://www.w3.org/2000/svg">
  <sodipodi:namedview
     id="namedview7"
     pagecolor="#ffffff"
     bordercolor="#666666"
     borderopacity="1.0"
     inkscape:pageshadow="2"
     inkscape:pageopacity="0.0"
     inkscape:pagecheckerboard="true"
     inkscape:document-units="mm"
     showgrid="false"
     width="480mm"
     units="px"
     inkscape:zoom="1.0456808"
     inkscape:cx="106.15094"
     inkscape:cy="351.92385"
     inkscape:window-width="1920"
     inkscape:window-height="1020"
     inkscape:window-x="-9"
     inkscape:window-y="-9"
     inkscape:window-maximized="1"
     inkscape:current-layer="layer5" />
  <defs
     id="defs2" />
  <g
     inkscape:groupmode="layer"
     id="layer5"
     inkscape:label="图层 4">
    <ellipse
       style="fill:#003472;fill-opacity:1;stroke:none;stroke-width:0.308972;stroke-miterlimit:4;stroke-dasharray:none"
       id="path13639"
       cx="78.785683"
       cy="50.736248"
       rx="56.551075"
       ry="40.357479"
       transform="rotate(14.024645)" />
  </g>
  <g
     inkscape:label="图层 1"
     inkscape:groupmode="layer"
     id="layer1"
     style="display:none">
    <path
       id="path35"
       style="fill:#003472;fill-opacity:1;stroke:none;stroke-width:1.19278;stroke-miterlimit:4;stroke-dasharray:none"
       d="M 197.02344,86.460938 A 237.81802,159.5264 16.443779 0 0 12.472656,195.06445 237.81802,159.5264 16.443779 0 0 106.54688,364.4668 c 1.49401,-2.75884 3.04942,-5.72125 4.67187,-8.90821 14.58743,-29.64542 23.41205,-67.40924 26.4707,-113.28906 l -31.41015,1.76563 h -4.23633 c -3.764499,0 -7.528472,-1.41296 -11.29297,-4.23633 -3.529217,-2.82338 -6.116704,-7.52736 -7.763672,-14.11524 v -1.41211 c 0,-1.41168 0.587266,-2.11718 1.763672,-2.11718 1.176406,0 3.058392,0.46903 5.646484,1.41015 2.588093,0.70585 6.11755,1.0586 10.587896,1.0586 h 2.82421 l 34.93946,-1.76367 c 0.70584,-18.35193 1.05859,-44.93816 1.05859,-79.75977 l -15.88086,0.70508 h -3.17773 c -5.64675,0 -10.11622,-1.88199 -13.41016,-5.64649 -3.29394,-3.76449 -5.52867,-7.76494 -6.70508,-12 v -1.41211 c 0,-1.41168 0.58727,-2.11718 1.76367,-2.11718 1.17641,0 3.0584,0.47098 5.64649,1.41211 2.82337,0.70584 6.35283,1.05859 10.58789,1.05859 h 2.82422 l 110.46289,-5.64649 c 4.23506,-0.47056 7.53,-1.05782 9.88281,-1.76367 2.58809,-0.94112 4.70655,-1.41211 6.35352,-1.41211 1.64696,0 3.76347,0.94002 6.35156,2.82227 6.35259,4.47034 9.5293,8.7053 9.5293,12.70508 0,2.82337 -2.94219,4.47084 -8.82422,4.9414 l -33.52735,1.76563 0.35352,80.11328 21.17578,-1.05859 c 4.23506,-0.47057 7.64628,-1.05979 10.23438,-1.76563 2.58809,-0.70584 4.70459,-1.05859 6.35156,-1.05859 1.88225,0 4.11894,1.17648 6.70703,3.52929 2.58809,2.11753 4.70459,4.47051 6.35156,7.0586 1.64697,2.58809 2.47071,4.35184 2.4707,5.29297 0,2.82337 -2.94023,4.47084 -8.82226,4.9414 l -44.46875,2.47071 0.70508,153.87304 c 0,5.41147 -2.23474,8.11719 -6.70508,8.11719 -4.23506,0 -8.11727,-1.411 -11.64649,-4.23437 -3.52921,-2.82338 -5.29296,-5.76362 -5.29296,-8.82227 v -2.82422 c 0.94112,-9.41124 1.41211,-19.88138 1.41211,-31.41015 V 239.09375 l -40.93946,2.11719 c -3.05865,49.8796 -13.99977,89.40717 -32.82226,118.58203 -2.76756,4.18873 -5.61516,8.19105 -8.52539,12.04687 a 237.81802,159.5264 16.443779 0 0 92.41601,38.32032 237.81802,159.5264 16.443779 0 0 262.41211,-98.0625 237.81802,159.5264 16.443779 0 0 -111.56055,-180.23243 c -17.43493,19.72863 -36.1544,35.83218 -56.16406,48.29102 -10.35237,6.35259 -19.0568,11.05853 -26.11523,14.11719 -7.05844,2.82337 -11.76438,4.23437 -14.11719,4.23437 -2.11753,0 -3.17578,-0.82373 -3.17578,-2.4707 0,-2.11753 2.23474,-4.70502 6.70508,-7.76367 21.1753,-15.05799 40.58633,-31.88154 58.23242,-50.46875 5.80095,-6.18768 10.55136,-11.66182 14.44531,-16.55274 A 237.81802,159.5264 16.443779 0 0 274.88477,97.001953 237.81802,159.5264 16.443779 0 0 197.02344,86.460938 Z m 3.48633,53.109372 -38.46875,2.11719 0.35156,26.82227 c 0,19.05777 -0.46903,36.82133 -1.41016,53.29101 l 39.52735,-2.11719 z m 164.81445,28.23242 c 2.35281,0 4.9403,1.17649 7.76367,3.5293 3.05866,2.35281 5.64614,5.05853 7.76367,8.11719 2.11753,2.82337 3.17578,5.17634 3.17578,7.05859 0,1.64697 -0.82178,3.64719 -2.46875,6 -22.11642,32.4688 -47.76264,57.40951 -76.9375,74.82031 -11.76405,7.29372 -21.64692,12.58693 -29.64648,15.88086 -7.76428,3.05866 -12.5865,4.5879 -14.46875,4.5879 -1.88225,0 -2.82422,-0.94197 -2.82422,-2.82422 0,-2.11753 2.23669,-4.70502 6.70703,-7.76368 25.64564,-17.64608 48.1132,-36.82065 67.40625,-57.52539 19.29305,-20.94002 29.17592,-36.11609 29.64649,-45.52734 0.47056,-4.23506 1.76528,-6.35352 3.88281,-6.35352 z m 10.58594,77.64258 c 3.76449,0 8.11769,2.47121 13.05859,7.41211 4.9409,4.94091 7.41211,8.5886 7.41211,10.94141 0,2.11753 -0.7055,4.23403 -2.11719,6.35156 -22.82227,38.58611 -50.23419,69.99651 -82.23242,94.23047 -23.52811,17.88137 -45.29017,30.35172 -65.28906,37.41016 -7.29372,2.58809 -11.99966,3.88086 -14.11719,3.88086 -1.88225,0 -2.82422,-1.05826 -2.82422,-3.17579 0,-2.11753 2.58944,-4.70501 7.76563,-7.76367 29.17486,-17.4108 53.99538,-36.82184 74.46484,-58.23242 20.70474,-21.64586 39.41027,-44.93911 56.11523,-69.87891 2.82338,-4.47034 4.23438,-9.17628 4.23438,-14.11718 v -2.46875 c 0,-3.05866 1.17648,-4.58985 3.5293,-4.58985 z"
       transform="scale(0.26458333)" />
  </g>
  <g
     inkscape:groupmode="layer"
     id="layer4"
     inkscape:label="图层 3"
     style="display:inline">
    <text
       xml:space="preserve"
       style="font-style:normal;font-weight:normal;font-size:92.8367px;line-height:1.25;font-family:sans-serif;display:inline;fill:#f0f0f4;fill-opacity:1;stroke:none;stroke-width:2.32092"
       x="18.523344"
       y="97.378998"
       id="text10361"><tspan
         sodipodi:role="line"
         id="tspan10359"
         style="font-style:normal;font-variant:normal;font-weight:normal;font-stretch:normal;font-family:'LXGW WenKai';-inkscape-font-specification:'LXGW WenKai';fill:#f0f0f4;fill-opacity:1;stroke-width:2.32092"
         x="18.523344"
         y="97.378998">形</tspan></text>
  </g>
  <g
     inkscape:groupmode="layer"
     id="layer3"
     inkscape:label="图层 2"
     style="display:none" />
  <g
     inkscape:groupmode="layer"
     id="g7419"
     inkscape:label="图层 2 复制"
     style="display:inline">
    <g
       aria-label="形"
       id="text7417"
       style="font-size:93.3772px;line-height:1.25;display:inline;stroke-width:2.33444;fill:#f00056;fill-opacity:1">
      <path
         d="m 98.992897,30.858309 c -5.540381,7.096667 -11.609899,12.699298 -18.208554,16.807895 -2.739064,1.680789 -5.042368,2.925819 -6.909912,3.735088 -1.867544,0.747017 -3.112573,1.120526 -3.735088,1.120526 -0.560263,0 -0.840395,-0.21788 -0.840395,-0.65364 0,-0.560263 0.591389,-1.245029 1.774167,-2.054298 5.602631,-3.984094 10.738377,-8.435074 15.407237,-13.35294 4.66886,-4.980117 7.00329,-8.372821 7.00329,-10.178114 0.06225,-1.120527 0.404636,-1.68079 1.027149,-1.68079 0.435761,0 1.058275,0.280132 1.867544,0.840395 0.809269,0.560263 1.556287,1.245029 2.241053,2.054298 0.684766,0.747018 1.027149,1.369533 1.027149,1.867544 0,0.435761 -0.21788,0.933773 -0.65364,1.494036 z"
         style="font-family:'LXGW WenKai';-inkscape-font-specification:'LXGW WenKai';fill:#f00056;fill-opacity:1"
         id="path7433"
         sodipodi:nodetypes="cccsscccsscsc" />
    </g>
  </g>
</svg>
